<?xml version="1.0" encoding="UTF-8"?>
<svg width="48px" height="48px" viewBox="0 0 48 48" version="1.1" xmlns="http://www.w3.org/2000/svg" xmlns:xlink="http://www.w3.org/1999/xlink">
    <title>marker-pin</title>
    <g id="marker-pin" stroke="none" stroke-width="1" fill="none" fill-rule="evenodd">
        <g id="mappin" transform="translate(17, 4)" fill-rule="nonzero">
            <rect id="Rectangle" fill="#000000" opacity="0" x="0" y="0" width="14.1283799" height="40"></rect>
            <path d="M13.6732271,6.86390783 C13.6732271,10.0682853 11.4883943,12.7629216 8.52071616,13.4911412 L8.52071616,30.386855 C8.52071616,35.7761026 7.57396854,38.6891053 6.82749063,38.6891053 C6.09923375,38.6891053 5.13427753,35.7578319 5.13427753,30.386855 L5.13427753,13.4911412 C2.16658691,12.7446508 0,10.0682853 0,6.86390783 C0,3.09512594 3.04051258,0 6.82749063,0 C10.6326897,0 13.6732271,3.09512594 13.6732271,6.86390783 Z M2.53072157,4.87938203 C2.53072157,6.15384711 3.62312554,7.24625108 4.87938203,7.24625108 C6.15384711,7.24625108 7.20983389,6.15384711 7.20983389,4.87938203 C7.20983389,3.62312554 6.15384711,2.54893017 4.87938203,2.54893017 C3.62312554,2.54893017 2.53072157,3.62312554 2.53072157,4.87938203 Z" id="Shape" fill="#FFFFFF"></path>
        </g>
    </g>
</svg>