<?xml version="1.0" encoding="UTF-8"?>
<svg width="48px" height="48px" viewBox="0 0 48 48" version="1.1" xmlns="http://www.w3.org/2000/svg" xmlns:xlink="http://www.w3.org/1999/xlink">
    <title>marker-fuel</title>
    <g id="marker-fuel" stroke="none" stroke-width="1" fill="none" fill-rule="evenodd">
        <g id="gas.fill" transform="translate(8, 8)" fill-rule="nonzero">
            <rect id="Rectangle" fill="#000000" opacity="0" x="0" y="0" width="32" height="32"></rect>
            <path d="M22.4861079,30.9098887 L22.4861079,3.64320226 C22.4861079,1.29090013 21.1945876,1.77635684e-15 18.8555685,1.77635684e-15 L7.30403478,1.77635684e-15 C4.93632278,1.77635684e-15 3.68789567,1.29090013 3.68789567,3.64320226 L3.68789567,30.9098887 L22.4861079,30.9098887 Z M7.76322782,12.9950705 C6.7156995,12.9950705 6.08431029,12.4212762 6.08431029,11.4603176 L6.08431029,3.97310462 C6.08431029,2.99775219 6.7156995,2.40968156 7.76322782,2.40968156 L18.3964244,2.40968156 C19.4439233,2.40968156 20.0753811,2.99775219 20.0753811,3.97310462 L20.0753811,11.4603176 C20.0753811,12.4212762 19.4439233,12.9950705 18.3964244,12.9950705 L7.76322782,12.9950705 Z M1.40628176,30.8094257 C1.40628176,31.4548954 1.92287026,31.9856062 2.53990816,31.9856062 L23.6054124,31.9856062 C24.2224698,31.9856062 24.7534195,31.4548954 24.7534195,30.8094257 C24.7534195,30.1927437 24.2224698,29.6763288 23.6054124,29.6763288 L2.53990816,29.6763288 C1.93722158,29.6763288 1.40628176,30.1783499 1.40628176,30.8094257 Z M27.9103165,28.3997834 C30.5219617,28.3997834 32,26.6499065 32,23.5517109 C32,19.9515922 31.2968346,15.8063689 29.9480071,9.28013415 L29.6466785,7.77408073 C29.3453499,6.35409645 28.9148105,5.20662532 28.068132,4.14522333 L26.4466785,2.12281377 C25.7148105,1.20484078 24.2941774,2.26624277 25.0834507,3.25594005 L27.1210433,5.79470574 C27.2502541,5.96682446 27.2645564,6.19631281 27.1497459,6.39712124 L25.9300312,8.63468408 C25.6144003,9.23709957 25.6861079,9.63871643 26.1883549,10.198068 L28.8574053,13.0380561 C29.761489,17.1116041 30.263736,20.7261166 30.263736,23.5517109 C30.263736,25.5454993 29.4170575,26.6499065 27.9103165,26.6499065 C26.5901916,26.6499065 25.7291128,25.789313 25.7291128,24.3693189 C25.7291128,22.2608696 26.0735444,19.4638671 26.0735444,16.8964802 C26.0735444,14.3863748 24.8394294,12.4786556 21.7973428,11.4747114 L21.1085777,13.0524499 C23.404494,13.755299 24.3372804,15.1751951 24.3372804,16.8964802 C24.3372804,19.1913637 23.9928488,21.9883662 23.9928488,24.3693189 C23.9928488,26.8507345 25.5282924,28.3997834 27.9103165,28.3997834 Z" id="Shape" fill="#FFFFFF"></path>
        </g>
    </g>
</svg>