<?xml version="1.0" encoding="UTF-8"?>
<svg width="48px" height="48px" viewBox="0 0 48 48" version="1.1" xmlns="http://www.w3.org/2000/svg" xmlns:xlink="http://www.w3.org/1999/xlink">
    <title>marker-trash</title>
    <g id="marker-trash" stroke="none" stroke-width="1" fill="none" fill-rule="evenodd">
        <g id="trash.fill" transform="translate(10, 6)" fill-rule="nonzero">
            <rect id="Rectangle" fill="#000000" opacity="0" x="0" y="0" width="28.7256" height="35.2295"></rect>
            <path d="M9.71191,28.1689 C9.14062,28.1689 8.77441,27.832 8.74512,27.2754 L8.30566,11.1475 C8.29102,10.6055 8.65723,10.2539 9.24316,10.2539 C9.78516,10.2539 10.166,10.5908 10.1807,11.1328 L10.6494,27.2754 C10.6641,27.8174 10.2832,28.1689 9.71191,28.1689 Z M14.1797,28.1689 C13.6084,28.1689 13.2129,27.8174 13.2129,27.2754 L13.2129,11.1475 C13.2129,10.6055 13.6084,10.2539 14.1797,10.2539 C14.751,10.2539 15.1611,10.6055 15.1611,11.1475 L15.1611,27.2754 C15.1611,27.8174 14.751,28.1689 14.1797,28.1689 Z M18.6621,28.1689 C18.0908,28.1689 17.71,27.8174 17.7246,27.2754 L18.1787,11.1475 C18.1934,10.5908 18.5742,10.2539 19.1162,10.2539 C19.7021,10.2539 20.0684,10.6055 20.0537,11.1475 L19.6143,27.2754 C19.585,27.832 19.2188,28.1689 18.6621,28.1689 Z M7.74902,6.69434 L10.0781,6.69434 L10.0781,3.55957 C10.0781,2.72461 10.6641,2.18262 11.543,2.18262 L16.7871,2.18262 C17.666,2.18262 18.252,2.72461 18.252,3.55957 L18.252,6.69434 L20.5811,6.69434 L20.5811,3.41309 C20.5811,1.28906 19.2041,0 16.9482,0 L11.3818,0 C9.12598,0 7.74902,1.28906 7.74902,3.41309 L7.74902,6.69434 Z M1.09863,7.86621 L27.2754,7.86621 C27.876,7.86621 28.3594,7.35352 28.3594,6.75293 C28.3594,6.15234 27.876,5.6543 27.2754,5.6543 L1.09863,5.6543 C0.512695,5.6543 0,6.15234 0,6.75293 C0,7.36816 0.512695,7.86621 1.09863,7.86621 Z M7.4707,32.6221 L20.9033,32.6221 C22.998,32.6221 24.4043,31.2598 24.5068,29.165 L25.5322,7.55859 L2.82715,7.55859 L3.86719,29.1797 C3.96973,31.2744 5.34668,32.6221 7.4707,32.6221 Z" id="Shape" fill="#FFFFFF"></path>
        </g>
    </g>
</svg>