<?xml version="1.0" encoding="UTF-8"?>
<svg width="48px" height="48px" viewBox="0 0 48 48" version="1.1" xmlns="http://www.w3.org/2000/svg" xmlns:xlink="http://www.w3.org/1999/xlink">
    <title>marker-bridge</title>
    <g id="marker-bridge" stroke="none" stroke-width="1" fill="none" fill-rule="evenodd">
        <g id="Group" transform="translate(4, 14)" fill="#FFFFFF" fill-rule="nonzero">
            <path d="M10.9090909,12.7272727 L10.9090909,7.10909091 C9.6,6.50909091 8.38181818,5.78181818 7.27272727,4.92727273 L7.27272727,12.7272727 L10.9090909,12.7272727 Z M7.27272727,20 L3.63636364,20 L3.63636364,16.3636364 L0,16.3636364 L0,12.7272727 L3.63636364,12.7272727 L3.63636364,0 L7.27272727,0 L7.27272727,2.6 C10.5454545,5.45454545 15.0363636,7.27272727 20,7.27272727 C24.9636364,7.27272727 29.4545455,5.45454545 32.7272727,2.6 L32.7272727,0 L36.3636364,0 L36.3636364,12.7272727 L40,12.7272727 L40,16.3636364 L36.3636364,16.3636364 L36.3636364,20 L32.7272727,20 L32.7272727,16.3636364 L7.27272727,16.3636364 L7.27272727,20 Z M29.0909091,7.10909091 L29.0909091,12.7272727 L32.7272727,12.7272727 L32.7272727,4.92727273 C31.6181818,5.78181818 30.4,6.50909091 29.0909091,7.10909091 M27.2727273,12.7272727 L27.2727273,7.85454545 C26.1090909,8.27272727 24.8909091,8.58181818 23.6363636,8.8 L23.6363636,12.7272727 L27.2727273,12.7272727 Z M21.8181818,12.7272727 L21.8181818,9.01818182 L20,9.09090909 L18.1818182,9.01818182 L18.1818182,12.7272727 L21.8181818,12.7272727 Z M16.3636364,12.7272727 L16.3636364,8.8 C15.1090909,8.58181818 13.8909091,8.27272727 12.7272727,7.85454545 L12.7272727,12.7272727 L16.3636364,12.7272727 Z" id="Shape"></path>
        </g>
    </g>
</svg>