<?xml version="1.0" encoding="UTF-8"?>
<svg width="48px" height="48px" viewBox="0 0 48 48" version="1.1" xmlns="http://www.w3.org/2000/svg" xmlns:xlink="http://www.w3.org/1999/xlink">
    <title>marker-sailboat</title>
    <g id="marker-sailboat" stroke="none" stroke-width="1" fill="none" fill-rule="evenodd">
        <g id="sailboat.fill" transform="translate(8, 4)" fill-rule="nonzero">
            <rect id="Rectangle" fill="#000000" opacity="0" x="0" y="0" width="32.5635" height="40.4443"></rect>
            <path d="M13.3887,32.2705 L15.6006,32.2705 L18.1641,2.53418 C18.1934,2.3584 18.4131,2.3291 18.4717,2.49023 C19.79,5.68359 20.5811,9.46289 20.5811,13.1836 C20.5811,18.0322 19.248,22.7637 15.9668,25.9424 L15.6445,28.4619 C19.8926,28.9014 24.1406,28.7549 26.8652,28.3301 C29.0039,28.0078 30.0439,27.1582 30.7471,25.2686 C31.5234,23.2178 31.8604,20.9619 31.8604,18.5596 C31.8604,12.2461 29.0625,5.12695 20.4639,0.585938 C19.7314,0.19043 18.999,0 18.3691,0 C17.0947,0 16.1572,0.776367 16.04,2.21191 L13.3887,32.2705 Z M3.92578,28.4619 C7.30957,28.8281 11.001,28.8428 14.3848,28.4766 L16.1719,7.39746 L2.91504,25.8691 C2.00684,27.1289 2.49023,28.3154 3.92578,28.4619 Z M8.4375,33.6768 C10.1514,33.6768 11.5283,34.3359 13.3008,35.625 C14.3115,36.4014 14.6777,36.6504 15.3955,36.6504 C16.1133,36.6504 16.4795,36.4014 17.4902,35.625 C19.248,34.3359 20.625,33.6768 22.3535,33.6768 C24.0381,33.6768 25.3857,34.3066 27.0996,35.5371 C27.3633,35.7422 27.5977,35.9033 27.7881,36.0205 C28.9893,34.6289 30.0586,32.7246 30.0586,31.7285 C30.0586,30.8643 29.4727,30.1904 28.2422,30.3516 C20.5518,31.4355 11.748,31.4355 3.69141,31.4355 C2.37305,31.4355 1.68457,32.4316 2.12402,33.6328 L2.98828,36.0205 C3.19336,35.9033 3.41309,35.7275 3.67676,35.5371 C5.40527,34.3066 6.73828,33.6768 8.4375,33.6768 Z M15.3955,40.415 C19.3799,40.415 20.0244,37.4414 22.3535,37.4414 C24.7266,37.4414 25.1074,40.415 29.6777,40.415 L31.1719,40.415 C31.7432,40.415 32.1973,39.9609 32.1973,39.3896 C32.1973,38.8184 31.7432,38.3496 31.1719,38.3496 L29.6777,38.3496 C28.0957,38.3496 27.2168,37.7051 26.1182,36.9141 C25.166,36.2256 23.9795,35.376 22.3535,35.376 C20.6689,35.376 19.4678,36.2842 18.5156,36.9873 C17.5049,37.7637 16.6992,38.3496 15.3955,38.3496 C14.0771,38.3496 13.2861,37.7637 12.2754,36.9873 C11.3232,36.2842 10.1221,35.376 8.4375,35.376 C6.81152,35.376 5.625,36.2256 4.67285,36.9141 C3.57422,37.7051 2.68066,38.3496 1.11328,38.3496 L1.04004,38.3496 C0.454102,38.3496 0,38.8184 0,39.3896 C0,39.9609 0.454102,40.415 1.04004,40.415 L1.11328,40.415 C5.66895,40.415 6.06445,37.4414 8.4375,37.4414 C10.7666,37.4414 11.3965,40.415 15.3955,40.415 Z" id="Shape" fill="#FFFFFF"></path>
        </g>
    </g>
</svg>