<?xml version="1.0" encoding="UTF-8"?>
<svg width="48px" height="48px" viewBox="0 0 48 48" version="1.1" xmlns="http://www.w3.org/2000/svg" xmlns:xlink="http://www.w3.org/1999/xlink">
    <title>marker-fire</title>
    <g id="marker-fire" stroke="none" stroke-width="1" fill="none" fill-rule="evenodd">
        <g id="Group" transform="translate(11, 7)" fill="#FFFFFF" fill-rule="nonzero">
            <path d="M23.9371681,15.4893309 C23.5027113,14.9226481 22.9738073,14.431523 22.4826821,13.9403978 C21.2170905,12.8070322 19.7814939,11.9947868 18.5725705,10.8047528 C15.7580458,8.04689632 15.1346947,3.49454418 16.9291903,0 C15.1346947,0.434456843 13.5668721,1.4167071 12.2257227,2.49340449 C7.3333609,6.42240551 5.40663925,13.3548256 7.71114946,19.3049954 C7.78670717,19.4938897 7.86226489,19.682784 7.86226489,19.9283465 C7.86226489,20.3439139 7.57892347,20.7217025 7.20113491,20.8728179 C6.76667806,21.0617122 6.31333179,20.9483756 5.95443266,20.6461448 C5.84722447,20.5563377 5.75756379,20.447464 5.68998067,20.3250245 C3.55547531,17.6238363 3.2154656,13.7515036 4.65106213,10.6536374 C1.49652766,13.2225996 -0.222410289,17.567168 0.0231522749,21.6661739 C0.136488843,22.6106453 0.249825411,23.5551167 0.570945686,24.4995881 C0.835397678,25.6329538 1.34541223,26.7663194 1.91209507,27.7674591 C3.95215329,31.0353302 7.48447633,33.3776192 11.2812513,33.8498549 C15.3235889,34.3598695 19.6492679,33.6231818 22.7471341,30.8275465 C26.2038995,27.6919014 27.4128228,22.6673136 25.6372166,18.360524 L25.391654,17.8693989 C24.9949761,17.0004852 23.9371681,15.4893309 23.9371681,15.4893309 M17.9681089,27.3896706 C17.4392049,27.8430168 16.5702912,28.334142 15.8902718,28.5230362 C13.7746558,29.2786134 11.6590399,28.2208054 10.4123377,26.9741032 C12.6601796,26.4451992 14.001329,24.7829295 14.398007,23.1017704 C14.7191272,21.5906162 14.1146655,20.3439139 13.869103,18.889428 C13.6424298,17.4916103 13.6802087,16.3015763 14.1902233,14.9982058 C14.5491224,15.7160041 14.9269109,16.4338023 15.3802572,17.0004852 C16.8347432,18.889428 19.120364,19.7205628 19.6114891,22.289525 C19.6870468,22.553977 19.7248257,22.818429 19.7248257,23.1017704 C19.7814939,24.6507035 19.1014745,26.350752 17.9681089,27.3896706" id="Shape"></path>
        </g>
    </g>
</svg>