<?xml version="1.0" encoding="UTF-8"?>
<svg width="48px" height="48px" viewBox="0 0 48 48" version="1.1" xmlns="http://www.w3.org/2000/svg" xmlns:xlink="http://www.w3.org/1999/xlink">
    <title>marker-restaurant</title>
    <g id="marker-restaurant" stroke="none" stroke-width="1" fill="none" fill-rule="evenodd">
        <g id="fork.knife" transform="translate(14, 6)" fill-rule="nonzero">
            <rect id="Rectangle" fill="#000000" opacity="0" x="0" y="0" width="20.4854" height="36.1377"></rect>
            <path d="M5.02055,33.9697 C6.25102,33.9697 7.01274,33.2812 6.99809,32.0801 L6.70512,15.6299 C6.70512,15.1172 6.92485,14.7363 7.37895,14.5312 C9.31254,13.6816 10.1475,12.7881 10.045,10.2246 L9.63481,1.23047 C9.60551,0.585938 9.22465,0.219727 8.62406,0.219727 C8.05278,0.219727 7.70121,0.600586 7.70121,1.25977 L7.80375,10.0049 C7.80375,10.5176 7.48149,10.8398 6.99809,10.8398 C6.50004,10.8398 6.14848,10.5322 6.14848,10.0488 L6.00199,0.996094 C5.98735,0.366211 5.62113,0 5.02055,0 C4.41996,0 4.0684,0.366211 4.05375,0.996094 L3.90727,10.0488 C3.90727,10.5322 3.55571,10.8398 3.05766,10.8398 C2.57426,10.8398 2.23735,10.5176 2.23735,10.0049 L2.33988,1.25977 C2.33988,0.600586 2.00297,0.219727 1.41703,0.219727 C0.816447,0.219727 0.435588,0.585938 0.406291,1.23047 L0.0107834,10.2246 C-0.106404,12.7881 0.728557,13.6816 2.66215,14.5312 C3.11625,14.7363 3.33598,15.1172 3.33598,15.6299 L3.05766,32.0801 C3.04301,33.2812 3.79008,33.9697 5.02055,33.9697 Z M16.4756,21.1963 L16.168,32.0068 C16.1241,33.2812 16.9004,33.9697 18.1163,33.9697 C19.3614,33.9697 20.1231,33.3398 20.1231,32.168 L20.1231,1.09863 C20.1231,0.351562 19.6104,0 19.083,0 C18.5264,0 18.1602,0.292969 17.6914,0.981445 C15.333,4.29199 13.7803,10.4883 13.7803,16.3477 L13.7803,17.0654 C13.7803,18.0762 14.1465,18.8232 14.8789,19.3066 L15.7432,19.8926 C16.2705,20.2588 16.5049,20.6689 16.4756,21.1963 Z" id="Shape" fill="#FFFFFF"></path>
        </g>
    </g>
</svg>