<?xml version="1.0" encoding="UTF-8"?>
<svg width="48px" height="48px" viewBox="0 0 48 48" version="1.1" xmlns="http://www.w3.org/2000/svg" xmlns:xlink="http://www.w3.org/1999/xlink">
    <title>marker-ferry</title>
    <g id="marker-ferry" stroke="none" stroke-width="1" fill="none" fill-rule="evenodd">
        <g id="Group" transform="translate(9, 7)" fill="#FFFFFF" fill-rule="nonzero">
            <path d="M6.18181818,7.72727273 L24.7272727,7.72727273 L24.7272727,13.8472727 L15.4545455,10.8181818 L6.18181818,13.8472727 M2.99818182,27.8181818 L3.09090909,27.8181818 C5.56363636,27.8181818 7.72727273,26.4581818 9.27272727,24.7272727 C10.8181818,26.4581818 12.9818182,27.8181818 15.4545455,27.8181818 C17.9272727,27.8181818 20.0909091,26.4581818 21.6363636,24.7272727 C23.1818182,26.4581818 25.3454545,27.8181818 27.8181818,27.8181818 L27.8954545,27.8181818 L30.8318182,17.4790909 C30.9554545,17.0927273 30.9090909,16.66 30.7390909,16.2890909 C30.5381818,15.9181818 30.2136364,15.64 29.8118182,15.5163636 L27.8181818,14.8672727 L27.8181818,7.72727273 C27.8181818,6.02021077 26.4343347,4.63636364 24.7272727,4.63636364 L20.0909091,4.63636364 L20.0909091,0 L10.8181818,0 L10.8181818,4.63636364 L6.18181818,4.63636364 C4.47475623,4.63636364 3.09090909,6.02021077 3.09090909,7.72727273 L3.09090909,14.8672727 L1.09727273,15.5163636 C0.695454545,15.64 0.370909091,15.9181818 0.17,16.2890909 C-1.22384741e-15,16.66 -0.0463636364,17.0927273 0.0772727273,17.4790909 M27.8181818,30.9090909 C25.67,30.9090909 23.5218182,30.1827273 21.6363636,28.8536364 C17.8654545,31.4963636 13.0436364,31.4963636 9.27272727,28.8536364 C7.38727273,30.1827273 5.23909091,30.9090909 3.09090909,30.9090909 L0,30.9090909 L0,34 L3.09090909,34 C5.20818182,34 7.32545455,33.4590909 9.27272727,32.4545455 C13.1363636,34.4636364 17.7727273,34.4636364 21.6363636,32.4545455 C23.5836364,33.4590909 25.6854545,34 27.8181818,34 L30.9090909,34 L30.9090909,30.9090909 L27.8181818,30.9090909 Z" id="Shape"></path>
        </g>
    </g>
</svg>