<?xml version="1.0" encoding="UTF-8"?>
<svg width="48px" height="48px" viewBox="0 0 48 48" version="1.1" xmlns="http://www.w3.org/2000/svg" xmlns:xlink="http://www.w3.org/1999/xlink">
    <title>marker-grocery</title>
    <g id="marker-grocery" stroke="none" stroke-width="1" fill="none" fill-rule="evenodd">
        <g id="cart.fill" transform="translate(7, 9)" fill-rule="nonzero">
            <rect id="Rectangle" fill="#000000" opacity="0" x="0" y="0" width="34.9219" height="30.8643"></rect>
            <path d="M0,3.16406 C0,3.76465 0.498047,4.27734 1.08398,4.27734 L6.03516,4.27734 L8.37891,20.3613 C8.68652,22.4414 9.78516,23.7451 11.9092,23.7451 L29.0039,23.7451 C29.5752,23.7451 30.0732,23.2764 30.0732,22.6465 C30.0732,22.0166 29.5752,21.5479 29.0039,21.5479 L12.1582,21.5479 C11.3232,21.5479 10.8105,20.9619 10.6787,20.0684 L10.4443,18.5303 L29.0332,18.5303 C31.1719,18.5303 32.2705,17.2119 32.5781,15.1172 L33.75,7.36816 C33.7793,7.17773 33.8086,6.94336 33.8086,6.81152 C33.8086,6.1084 33.2812,5.625 32.4756,5.625 L8.56934,5.625 L8.27637,3.76465 C8.12988,2.63672 7.71973,2.06543 6.22559,2.06543 L1.08398,2.06543 C0.498047,2.06543 0,2.57812 0,3.16406 Z M10.6787,28.4912 C10.6787,29.8242 11.7334,30.8643 13.0664,30.8643 C14.3848,30.8643 15.4395,29.8242 15.4395,28.4912 C15.4395,27.1729 14.3848,26.1182 13.0664,26.1182 C11.7334,26.1182 10.6787,27.1729 10.6787,28.4912 Z M24.375,28.4912 C24.375,29.8242 25.4443,30.8643 26.7627,30.8643 C28.0957,30.8643 29.1504,29.8242 29.1504,28.4912 C29.1504,27.1729 28.0957,26.1182 26.7627,26.1182 C25.4443,26.1182 24.375,27.1729 24.375,28.4912 Z" id="Shape" fill="#FFFFFF"></path>
        </g>
    </g>
</svg>