<?xml version="1.0" encoding="UTF-8"?>
<svg width="48px" height="48px" viewBox="0 0 48 48" version="1.1" xmlns="http://www.w3.org/2000/svg" xmlns:xlink="http://www.w3.org/1999/xlink">
    <title>marker-lifepreserver</title>
    <g id="marker-lifepreserver" stroke="none" stroke-width="1" fill="none" fill-rule="evenodd">
        <g id="lifepreserver" transform="translate(9, 9)" fill-rule="nonzero">
            <rect id="Rectangle" fill="#000000" opacity="0" x="0" y="0" width="30.249" height="29.8975"></rect>
            <path d="M14.9414,22.7783 C19.2627,22.7783 22.7783,19.2627 22.7783,14.9414 C22.7783,10.6201 19.2627,7.10449 14.9414,7.10449 C10.6201,7.10449 7.10449,10.6201 7.10449,14.9414 C7.10449,19.2627 10.6201,22.7783 14.9414,22.7783 Z M14.9414,20.3027 C11.9824,20.3027 9.58008,17.9004 9.58008,14.9414 C9.58008,11.9824 11.9824,9.58008 14.9414,9.58008 C17.9004,9.58008 20.3027,11.9824 20.3027,14.9414 C20.3027,17.9004 17.9004,20.3027 14.9414,20.3027 Z M3.2666,23.5693 L6.41602,26.7188 L12.2314,20.9033 L9.08203,17.7539 L3.2666,23.5693 Z M3.12012,6.29883 L9.08203,12.2607 L12.2314,9.11133 L6.26953,3.14941 L3.12012,6.29883 Z M26.792,6.32812 L23.6426,3.17871 L17.71,9.11133 L20.8594,12.2607 L26.792,6.32812 Z M26.6602,23.54 L20.874,17.7539 L17.71,20.918 L23.4961,26.7041 L26.6602,23.54 Z M14.9414,29.8828 C23.1885,29.8828 29.8828,23.1885 29.8828,14.9414 C29.8828,6.69434 23.1885,0 14.9414,0 C6.69434,0 0,6.69434 0,14.9414 C0,23.1885 6.69434,29.8828 14.9414,29.8828 Z M14.9414,27.3926 C8.05664,27.3926 2.49023,21.8262 2.49023,14.9414 C2.49023,8.05664 8.05664,2.49023 14.9414,2.49023 C21.8262,2.49023 27.3926,8.05664 27.3926,14.9414 C27.3926,21.8262 21.8262,27.3926 14.9414,27.3926 Z" id="Shape" fill="#FFFFFF"></path>
        </g>
    </g>
</svg>