<?xml version="1.0" encoding="UTF-8"?>
<svg width="48px" height="48px" viewBox="0 0 48 48" version="1.1" xmlns="http://www.w3.org/2000/svg" xmlns:xlink="http://www.w3.org/1999/xlink">
    <title>marker-fish</title>
    <g id="marker-fish" stroke="none" stroke-width="1" fill="none" fill-rule="evenodd">
        <g id="Group" transform="translate(5, 9)" fill="#FFFFFF" fill-rule="nonzero">
            <path d="M18.157554,0.421085246 C17.4582027,-0.105271311 16.5081404,-0.138168596 15.7626055,0.322393391 C15.0170705,0.782955379 14.6476018,1.66460261 14.8191409,2.51993202 L15.4591133,5.7175481 C14.1791684,6.30969923 13.0245788,7.02686004 12.0019424,7.79007705 C10.9925012,8.5467146 10.0886226,9.36256726 9.31669699,10.1784199 L3.17428064,6.60577479 C2.34957382,6.12547444 1.30054675,6.25706358 0.627585994,6.92816819 C-0.0453747663,7.5992728 -0.19712082,8.638827 0.277910305,9.46783858 L3.29963607,14.7379836 L0.277910305,20.0081286 C-0.19712082,20.8371402 -0.0519724208,21.8766944 0.627585994,22.547799 C1.30714441,23.2189036 2.34957382,23.3504928 3.17428064,22.8701924 L9.31669699,19.2975473 C10.0952202,20.1068205 10.9925012,20.9292526 12.0019424,21.6858902 C13.0245788,22.4491072 14.1791684,23.166268 15.4591133,23.7584191 L14.8191409,26.9560352 C14.6476018,27.8113646 15.0236681,28.6864324 15.7626055,29.1469944 C16.5015428,29.6075564 17.451605,29.5746591 18.157554,29.0483025 L23.2773339,25.2190586 C26.8994463,24.9558803 29.9739533,23.4426052 32.3293159,21.6793107 C34.9155965,19.7449504 36.7629398,17.422402 37.713002,15.7906967 C38.095666,15.1393305 38.095666,14.3300573 37.713002,13.678691 C36.7629398,12.0469857 34.9089989,9.7244374 32.3293159,7.79007705 C29.9673556,6.02678258 26.8994463,4.51350748 23.2773339,4.2503292 L18.157554,0.421085246 Z M25.5918367,14.3469388 C25.5918367,13.2761826 26.4598561,12.4081633 27.5306122,12.4081633 C28.6013684,12.4081633 29.4693878,13.2761826 29.4693878,14.3469388 C29.4693878,15.4176949 28.6013684,16.2857143 27.5306122,16.2857143 C26.4598561,16.2857143 25.5918367,15.4176949 25.5918367,14.3469388" id="Shape"></path>
        </g>
    </g>
</svg>