<?xml version="1.0" encoding="UTF-8"?>
<svg width="48px" height="48px" viewBox="0 0 48 48" version="1.1" xmlns="http://www.w3.org/2000/svg" xmlns:xlink="http://www.w3.org/1999/xlink">
    <title>marker-anchor</title>
    <g id="marker-anchor" stroke="none" stroke-width="1" fill="none" fill-rule="evenodd">
        <path d="M18.4444444,40.5777778 C16.5481481,39.9259259 14.8296296,39.037037 13.2888889,37.9111111 C11.7481481,36.7851852 10.4817778,35.4666667 9.48977778,33.9555556 C8.49777778,32.4444444 8.00118519,30.8296296 8,29.1111111 L8,23.7777778 L15.1111111,29.1111111 L12.3555556,31.8666667 C13.2148148,33.3777778 14.5777778,34.6814815 16.4444444,35.7777778 C18.3111111,36.8740741 20.237037,37.5703704 22.2222222,37.8666667 L22.2222222,22 L16.8888889,22 L16.8888889,18.4444444 L22.2222222,18.4444444 L22.2222222,16.3555556 C21.1851852,15.9703704 20.3336296,15.3256296 19.6675556,14.4213333 C19.0014815,13.517037 18.6678519,12.4877037 18.6666667,11.3333333 C18.6666667,9.85185185 19.1851852,8.59259259 20.2222222,7.55555556 C21.2592593,6.51851852 22.5185185,6 24,6 C25.4814815,6 26.7407407,6.51851852 27.7777778,7.55555556 C28.8148148,8.59259259 29.3333333,9.85185185 29.3333333,11.3333333 C29.3333333,12.4888889 29.0002963,13.5188148 28.3342222,14.4231111 C27.6681481,15.3274074 26.816,15.9715556 25.7777778,16.3555556 L25.7777778,18.4444444 L31.1111111,18.4444444 L31.1111111,22 L25.7777778,22 L25.7777778,37.8666667 C27.762963,37.5703704 29.6888889,36.8740741 31.5555556,35.7777778 C33.4222222,34.6814815 34.7851852,33.3777778 35.6444444,31.8666667 L32.8888889,29.1111111 L40,23.7777778 L40,29.1111111 C40,30.8296296 39.504,32.4444444 38.512,33.9555556 C37.52,35.4666667 36.253037,36.7851852 34.7111111,37.9111111 C33.1691852,39.037037 31.4506667,39.9259259 29.5555556,40.5777778 C27.6604444,41.2296296 25.8085926,41.5555556 24,41.5555556 C22.1914074,41.5555556 20.3395556,41.2296296 18.4444444,40.5777778 M24,13.1111111 C24.5037037,13.1111111 24.9262222,12.941037 25.2675556,12.6008889 C25.6088889,12.2607407 25.778963,11.8382222 25.7777839,11.3333333 C25.7765926,10.8284444 25.6059259,10.4065185 25.2657778,10.0675556 C24.9256296,9.72859259 24.5037037,9.55792593 24,9.5555312 C23.4962963,9.55318519 23.0743704,9.72385185 22.7342222,10.0675556 C22.3940741,10.4112593 22.2234074,10.8331852 22.2222161,11.3333333 C22.221037,11.8334815 22.3917037,12.256 22.7342222,12.6008889 C23.0767407,12.9457778 23.4986667,13.1158519 24,13.1111111" id="Shape" fill="#FFFFFF" fill-rule="nonzero"></path>
    </g>
</svg>