<?xml version="1.0" encoding="UTF-8"?>
<svg width="48px" height="48px" viewBox="0 0 48 48" version="1.1" xmlns="http://www.w3.org/2000/svg" xmlns:xlink="http://www.w3.org/1999/xlink">
    <title>marker-obstruction</title>
    <g id="marker-obstruction" stroke="none" stroke-width="1" fill="none" fill-rule="evenodd">
        <path d="M24.0161905,36.1428571 C25.3574534,36.1428571 26.4447619,37.2301656 26.4447619,38.5714286 C26.4447619,39.9126915 25.3574534,41 24.0161905,41 L24,41 C22.658737,41 21.5714286,39.9126915 21.5714286,38.5714286 C21.5714286,37.2301656 22.658737,36.1428571 24,36.1428571 L24.0161905,36.1428571 Z M14.6127619,35.4013333 C15.2834128,34.2398249 16.7686526,33.8418764 17.9301905,34.5124762 L17.9447619,34.5205714 C18.6961425,34.9546831 19.158851,35.7566757 19.1585896,36.6244462 C19.158328,37.4922168 18.6951363,38.2939303 17.9434942,38.7275891 C17.1918522,39.1612479 16.265952,39.1609689 15.5145714,38.7268571 L15.501619,38.7187619 C14.3401107,38.048111 13.9421621,36.5628712 14.6127619,35.4013333 M30.0633333,34.5011429 C30.6213211,34.1792432 31.2843398,34.0922199 31.9064974,34.2592217 C32.528655,34.4262235 33.058974,34.8335668 33.3807619,35.391619 L33.3888571,35.4045714 C34.0486764,36.5650885 33.6480867,38.0405925 32.4919719,38.7080953 C31.3358571,39.3755981 29.8577283,38.9848045 29.1825714,37.8331429 L29.1744762,37.8185714 C28.8525766,37.2605837 28.7655533,36.597565 28.9325551,35.9754074 C29.0995569,35.3532497 29.5069002,34.8229308 30.0649524,34.5011429 M34.5302857,30.0649524 C34.961021,29.3073576 35.7646635,28.8386374 36.6361444,28.8367157 C37.5076254,28.8348057 38.313321,29.2999879 38.7473831,30.0556815 C39.1814452,30.8113751 39.1773192,31.7417099 38.7365714,32.4935238 L38.7284762,32.5064762 C38.2977409,33.264071 37.4940984,33.7327912 36.6226175,33.7347129 C35.7511365,33.7366229 34.9454409,33.2714406 34.5113788,32.5157471 C34.0773167,31.7600535 34.0814427,30.8297186 34.5221905,30.0779048 L34.5302857,30.0649524 Z M10.1830476,29.1744762 C10.9348615,28.7337284 11.8651963,28.7296024 12.6208899,29.1636645 C13.3765835,29.5977266 13.8417657,30.4034222 13.8398558,31.2749032 C13.837934,32.1463841 13.3692138,32.9500266 12.611619,33.3807619 L12.5970476,33.3888571 C11.4365306,34.0486764 9.96102652,33.6480867 9.29352376,32.4919719 C8.626021,31.3358571 9.01681456,29.8577283 10.1684762,29.1825714 L10.1830476,29.1744762 Z M9.4447619,21.5714286 C10.7860249,21.5714286 11.8733333,22.658737 11.8733333,24 C11.8733333,25.341263 10.7860249,26.4285714 9.4447619,26.4285714 L9.42857143,26.4285714 C8.08730846,26.4285714 7,25.341263 7,24 C7,22.658737 8.08730846,21.5714286 9.42857143,21.5714286 L9.4447619,21.5714286 Z M38.5714286,21.5714286 C39.9126915,21.5714286 41,22.658737 41,24 C41,25.341263 39.9126915,26.4285714 38.5714286,26.4285714 L38.5552381,26.4285714 C37.2139751,26.4285714 36.1266667,25.341263 36.1266667,24 C36.1266667,22.658737 37.2139751,21.5714286 38.5552381,21.5714286 L38.5714286,21.5714286 Z M9.27638095,15.5 C9.59844516,14.9417833 10.1291787,14.534468 10.7517036,14.3677528 C11.3742285,14.2010376 12.0374913,14.2885949 12.5954286,14.6111429 L12.61,14.6192381 C13.7616616,15.294395 14.1524552,16.7725238 13.4849524,17.9286385 C12.8174497,19.0847533 11.3419456,19.4853431 10.1814286,18.8255238 L10.1668571,18.8174286 C9.60880493,18.4956407 9.20146162,17.9653217 9.03445982,17.3431641 C8.86745801,16.7210064 8.95448132,16.0579878 9.27638095,15.5 M35.4045714,14.6111429 C36.5650885,13.9513236 38.0405925,14.3519133 38.7080953,15.5080281 C39.3755981,16.6641429 38.9848045,18.1422717 37.8331429,18.8174286 L37.8185714,18.8255238 C36.6580544,19.4853431 35.1825503,19.0847533 34.5150476,17.9286385 C33.8475448,16.7725238 34.2383384,15.294395 35.39,14.6192381 L35.4045714,14.6111429 Z M15.5161905,9.27314286 C16.6767075,8.61332358 18.1522116,9.01391334 18.8197143,10.1700281 C19.4872171,11.3261429 19.0964235,12.8042717 17.9447619,13.4794286 L17.9301905,13.4875238 C16.7696734,14.1473431 15.2941694,13.7467533 14.6266666,12.5906385 C13.9591639,11.4345238 14.3499574,9.95639497 15.501619,9.2812381 L15.5161905,9.27314286 Z M29.1825714,10.163619 C29.5043647,9.60512751 30.0349784,9.19746869 30.6575267,9.03044355 C31.2800749,8.86341842 31.9434854,8.95072926 32.501619,9.27314286 L32.5161905,9.2812381 C33.6678521,9.95639497 34.0586457,11.4345238 33.3911429,12.5906385 C32.7236402,13.7467533 31.2481361,14.1473431 30.087619,13.4875238 L30.0730476,13.4794286 C29.5149954,13.1576407 29.1076521,12.6273217 28.9406503,12.0051641 C28.7736485,11.3830064 28.8606718,10.7199878 29.1825714,10.162 M24.0161905,7 C25.3574534,7 26.4447619,8.08730846 26.4447619,9.42857143 C26.4447619,10.7698344 25.3574534,11.8571429 24.0161905,11.8571429 L24,11.8571429 C22.658737,11.8571429 21.5714286,10.7698344 21.5714286,9.42857143 C21.5714286,8.08730846 22.658737,7 24,7 L24.0161905,7 Z" id="Shape" fill="#FFFFFF" fill-rule="nonzero"></path>
    </g>
</svg>