<?xml version="1.0" encoding="UTF-8"?>
<svg width="48px" height="48px" viewBox="0 0 48 48" version="1.1" xmlns="http://www.w3.org/2000/svg" xmlns:xlink="http://www.w3.org/1999/xlink">
    <title>vessel-highspeed</title>
    <g id="vessel-highspeed" stroke="none" stroke-width="1" fill="none" fill-rule="evenodd">
        <path d="M25.7033166,4.76788953 L33.9927767,18.2382621 C35.2851554,20.3383775 35.7560085,22.841953 35.3148926,25.2680907 L33.558796,34.9266218 C33.1949351,36.9278571 32.2294515,38.7705485 30.7911647,40.2088353 L27.5857864,43.4142136 C27.2107137,43.7892863 26.7020059,44 26.1715729,44 L21.8284271,44 C21.2979941,44 20.7892863,43.7892863 20.4142136,43.4142136 L17.2088353,40.2088353 C15.7705485,38.7705485 14.8050649,36.9278571 14.441204,34.9266218 L12.6851074,25.2680907 C12.2439915,22.841953 12.7148446,20.3383775 14.0072233,18.2382621 L22.2966834,4.76788953 C22.8755854,3.82717373 24.1074791,3.53386572 25.0481949,4.11276775 C25.3148357,4.27685445 25.5392299,4.50124864 25.7033166,4.76788953 Z" id="Path" fill="#FFFFFF" fill-rule="nonzero"></path>
    </g>
</svg>