<?xml version="1.0" encoding="UTF-8"?>
<svg width="48px" height="48px" viewBox="0 0 48 48" version="1.1" xmlns="http://www.w3.org/2000/svg" xmlns:xlink="http://www.w3.org/1999/xlink">
    <title>vessel-sailing</title>
    <g id="vessel-sailing" stroke="none" stroke-width="1" fill="none" fill-rule="evenodd">
        <path d="M25.5170326,5.07213604 C28.0385144,7.99377191 30.0328369,11.9697266 31.5,17 C34.125,26 32.625,30.5 31.5,35 C30.9459229,37.2163086 30.2554006,39.159727 29.4284332,40.8302552 C28.9224598,41.8535793 27.8793711,42.5007751 26.737793,42.5 L21.262207,42.5 C20.1206289,42.5007751 19.0775402,41.8535793 18.5715668,40.8302552 C17.7445994,39.159727 17.0540771,37.2163086 16.5,35 C15.375,30.5 13.875,26 16.5,17 C17.9688721,11.9638672 19.9661323,7.98451078 22.4917808,5.06193078 L22.4934636,5.06339117 C23.217431,4.22915794 24.4806021,4.13976976 25.3148353,4.86373709 C25.3880962,4.92731461 25.4566347,4.99613769 25.5199081,5.06966138 Z" id="Path" fill="#FFFFFF" fill-rule="nonzero"></path>
    </g>
</svg>