<?xml version="1.0" encoding="UTF-8"?>
<svg width="48px" height="48px" viewBox="0 0 48 48" version="1.1" xmlns="http://www.w3.org/2000/svg" xmlns:xlink="http://www.w3.org/1999/xlink">
    <title>vessel-tug</title>
    <g id="vessel-tug" stroke="none" stroke-width="1" fill="none" fill-rule="evenodd">
        <path d="M24.6507914,8.05782118 L31.4166486,13.8571273 C33.3938082,15.5518356 34.6319052,17.9509573 34.8676669,20.5443359 L35.7044492,29.748941 C35.8964961,31.8614569 35.4118088,33.9803186 34.3204464,35.799256 L32.0826051,39.5289915 C31.7211586,40.1314023 31.0701449,40.5 30.3676192,40.5 L17.6323808,40.5 C16.9298551,40.5 16.2788414,40.1314023 15.9173949,39.5289915 L13.6795536,35.799256 C12.5881912,33.9803186 12.1035039,31.8614569 12.2955508,29.748941 L13.1323331,20.5443359 C13.3680948,17.9509573 14.6061918,15.5518356 16.5833514,13.8571273 L23.3492086,8.05782118 C23.7236984,7.73682998 24.2763016,7.73682998 24.6507914,8.05782118 Z" id="Path" fill="#FFFFFF" fill-rule="nonzero"></path>
    </g>
</svg>